 http://www.imdb.com/title/tt1602472/



Format : AVI

Format/Info : Audio Video Interleave

Format profile : OpenDML

File size : 1.43 GiB

Duration : 1h 35mn

Overall bit rate : 2 140 Kbps

Writing application : Lavf52.103.0



Video

ID : 1

Format : MPEG-4 Visual

Format profile : Simple@L1

Format settings, BVOP : No

Format settings, QPel : No

Format settings, GMC : No warppoints

Format settings, Matrix : Default (H.263)

Codec ID : FMP4

Duration : 1h 35mn

Bit rate : 1 998 Kbps

Width : 640 pixels

Height : 346 pixels

Display aspect ratio : 1.85:1

Frame rate : 23.976 fps

Color space : YUV

Chroma subsampling : 4:2:0

Bit depth : 8 bits

Scan type : Progressive

Compression mode : Lossy

Bits/(Pixel*Frame) : 0.376

Stream size : 1.33 GiB (93%)

Writing library : Lavc52.116.0



Audio

ID : 0

Format : MPEG Audio

Format version : Version 1

Format profile : Layer 3

Mode : Joint stereo

Mode extension : MS Stereo

Codec ID : 55

Codec ID/Hint : MP3

Duration : 1h 35mn

Bit rate mode : Constant

Bit rate : 128 Kbps

Channel(s) : 2 channels

Sampling rate : 44.1 KHz

Compression mode : Lossy

Stream size : 87.4 MiB (6%)

Alignment : Aligned on interleaves

Interleave, duration : 42 ms (1.00 video frame)

Writing library : LAME3.98.4

